<svg width="119" height="26" viewBox="0 0 119 26" fill="none" xmlns="http://www.w3.org/2000/svg">
<path d="M11.336 2.184L19.144 22.312C19.464 23.1227 19.8267 23.6667 20.232 23.944C20.6373 24.2 21.0107 24.3387 21.352 24.36V25C20.9253 24.9573 20.4027 24.936 19.784 24.936C19.1653 24.9147 18.5467 24.904 17.928 24.904C17.096 24.904 16.3173 24.9147 15.592 24.936C14.8667 24.936 14.28 24.9573 13.832 25V24.36C14.92 24.3173 15.6133 24.136 15.912 23.816C16.2107 23.4747 16.1467 22.76 15.72 21.672L9.768 5.768L10.28 5.352L4.712 19.816C4.37067 20.6693 4.168 21.3947 4.104 21.992C4.04 22.568 4.09333 23.0267 4.264 23.368C4.456 23.7093 4.76533 23.9547 5.192 24.104C5.64 24.2533 6.19467 24.3387 6.856 24.36V25C6.25867 24.9573 5.62933 24.936 4.968 24.936C4.328 24.9147 3.73067 24.904 3.176 24.904C2.64267 24.904 2.184 24.9147 1.8 24.936C1.43733 24.936 1.096 24.9573 0.776 25V24.36C1.20267 24.2533 1.64 24.008 2.088 23.624C2.536 23.2187 2.94133 22.536 3.304 21.576L10.824 2.184C10.9093 2.184 10.9947 2.184 11.08 2.184C11.1653 2.184 11.2507 2.184 11.336 2.184ZM15.24 15.784V16.424H5.704L6.024 15.784H15.24ZM31.0763 8.072C31.6523 8.072 32.1536 8.18933 32.5803 8.424C33.0283 8.65867 33.3696 8.968 33.6043 9.352C33.8603 9.71467 33.9883 10.1307 33.9883 10.6C33.9883 11.1333 33.8176 11.6027 33.4763 12.008C33.1563 12.4133 32.7189 12.616 32.1643 12.616C31.7163 12.616 31.3216 12.4773 30.9803 12.2C30.6389 11.9013 30.4683 11.4853 30.4683 10.952C30.4683 10.5467 30.5749 10.2053 30.7883 9.928C31.0229 9.62933 31.2789 9.39467 31.5563 9.224C31.4069 9.01067 31.1829 8.904 30.8843 8.904C30.2229 8.904 29.6149 9.10667 29.0603 9.512C28.5056 9.896 28.0363 10.3973 27.6523 11.016C27.2683 11.6347 26.9696 12.296 26.7563 13C26.5429 13.6827 26.4363 14.3227 26.4363 14.92V21.704C26.4363 22.7493 26.7349 23.4533 27.3323 23.816C27.9509 24.1573 28.7829 24.328 29.8283 24.328V25C29.3376 24.9787 28.6443 24.9573 27.7483 24.936C26.8523 24.8933 25.9029 24.872 24.9003 24.872C24.1749 24.872 23.4496 24.8933 22.7243 24.936C22.0203 24.9573 21.4869 24.9787 21.1243 25V24.328C21.9989 24.328 22.6176 24.168 22.9803 23.848C23.3643 23.528 23.5563 22.92 23.5563 22.024V12.008C23.5563 11.048 23.3856 10.344 23.0443 9.896C22.7029 9.42667 22.0629 9.192 21.1243 9.192V8.52C21.8069 8.584 22.4683 8.616 23.1083 8.616C23.7269 8.616 24.3136 8.584 24.8683 8.52C25.4443 8.43467 25.9669 8.31733 26.4363 8.168V12.168C26.6709 11.5493 27.0016 10.9307 27.4283 10.312C27.8763 9.672 28.4096 9.13867 29.0283 8.712C29.6469 8.28533 30.3296 8.072 31.0763 8.072ZM39.5663 3.208V8.552H44.3023V9.192H39.5663V21.576C39.5663 22.5787 39.7476 23.2827 40.1103 23.688C40.4729 24.0933 40.9743 24.296 41.6143 24.296C42.2543 24.296 42.8089 24.04 43.2783 23.528C43.7476 22.9947 44.1529 22.1093 44.4943 20.872L45.1343 21.032C44.9209 22.2693 44.4943 23.3147 43.8543 24.168C43.2356 25.0213 42.2756 25.448 40.9743 25.448C40.2489 25.448 39.6516 25.352 39.1823 25.16C38.7129 24.9893 38.2969 24.7333 37.9343 24.392C37.4649 23.9013 37.1343 23.3147 36.9423 22.632C36.7716 21.9493 36.6863 21.0427 36.6863 19.912V9.192H33.6143V8.552H36.6863V3.656C37.2196 3.63467 37.7316 3.592 38.2223 3.528C38.7129 3.464 39.1609 3.35733 39.5663 3.208ZM48.4147 0.519999C48.9694 0.519999 49.4494 0.722665 49.8547 1.128C50.2601 1.53333 50.4627 2.01333 50.4627 2.568C50.4627 3.12267 50.2601 3.60267 49.8547 4.008C49.4494 4.41333 48.9694 4.616 48.4147 4.616C47.8601 4.616 47.3801 4.41333 46.9747 4.008C46.5694 3.60267 46.3667 3.12267 46.3667 2.568C46.3667 2.01333 46.5694 1.53333 46.9747 1.128C47.3801 0.722665 47.8601 0.519999 48.4147 0.519999ZM50.0787 8.168V22.024C50.0787 22.92 50.2601 23.528 50.6227 23.848C51.0067 24.168 51.6361 24.328 52.5107 24.328V25C52.1481 24.9787 51.5934 24.9573 50.8467 24.936C50.1214 24.8933 49.3854 24.872 48.6387 24.872C47.9134 24.872 47.1774 24.8933 46.4307 24.936C45.6841 24.9573 45.1294 24.9787 44.7667 25V24.328C45.6414 24.328 46.2601 24.168 46.6227 23.848C47.0067 23.528 47.1987 22.92 47.1987 22.024V12.008C47.1987 11.048 47.0281 10.344 46.6867 9.896C46.3454 9.42667 45.7054 9.192 44.7667 9.192V8.52C45.4494 8.584 46.1107 8.616 46.7507 8.616C47.3694 8.616 47.9561 8.584 48.5107 8.52C49.0867 8.43467 49.6094 8.31733 50.0787 8.168ZM58.9097 8.072C59.7631 8.072 60.4884 8.21067 61.0858 8.488C61.6831 8.76533 62.1204 9.02133 62.3977 9.256C63.1018 9.832 63.5284 9.448 63.6778 8.104H64.4138C64.3711 8.70133 64.3391 9.416 64.3177 10.248C64.2964 11.0587 64.2858 12.1573 64.2858 13.544H63.5498C63.4218 12.7547 63.1978 11.9867 62.8778 11.24C62.5791 10.4933 62.1311 9.88533 61.5338 9.416C60.9364 8.92533 60.1578 8.68 59.1978 8.68C58.4511 8.68 57.8218 8.89333 57.3098 9.32C56.8191 9.72533 56.5738 10.3333 56.5738 11.144C56.5738 11.784 56.7658 12.3387 57.1498 12.808C57.5338 13.256 58.0351 13.6827 58.6537 14.088C59.2724 14.472 59.9444 14.8987 60.6698 15.368C61.4804 15.88 62.2164 16.4027 62.8778 16.936C63.5391 17.4693 64.0618 18.056 64.4458 18.696C64.8511 19.336 65.0538 20.0933 65.0538 20.968C65.0538 21.9493 64.7978 22.7707 64.2858 23.432C63.7738 24.0933 63.1018 24.5947 62.2698 24.936C61.4591 25.2773 60.5631 25.448 59.5818 25.448C59.1124 25.448 58.6644 25.4053 58.2378 25.32C57.8324 25.256 57.4378 25.1493 57.0538 25C56.8404 24.8933 56.6164 24.7653 56.3818 24.616C56.1684 24.4667 55.9551 24.3067 55.7418 24.136C55.5284 23.9653 55.3364 23.976 55.1658 24.168C54.9951 24.3387 54.8671 24.6907 54.7817 25.224H54.0457C54.0884 24.5413 54.1204 23.7093 54.1417 22.728C54.1631 21.7467 54.1737 20.4453 54.1737 18.824H54.9097C55.0591 20.0187 55.2724 21.064 55.5498 21.96C55.8271 22.856 56.2644 23.56 56.8618 24.072C57.4591 24.5627 58.2911 24.808 59.3578 24.808C59.7844 24.808 60.2111 24.712 60.6378 24.52C61.0858 24.328 61.4591 24.008 61.7578 23.56C62.0564 23.112 62.2058 22.5147 62.2058 21.768C62.2058 20.8293 61.8644 20.0613 61.1818 19.464C60.4991 18.8667 59.6351 18.2373 58.5898 17.576C57.8218 17.0853 57.0964 16.5947 56.4138 16.104C55.7524 15.6133 55.2084 15.0587 54.7817 14.44C54.3764 13.8213 54.1737 13.0747 54.1737 12.2C54.1737 11.24 54.3871 10.4613 54.8138 9.864C55.2617 9.24533 55.8484 8.79733 56.5738 8.52C57.2991 8.22133 58.0778 8.072 58.9097 8.072ZM71.0782 25.224C70.2036 25.224 69.4462 25.064 68.8062 24.744C68.1662 24.4027 67.6756 23.9333 67.3342 23.336C67.0142 22.7387 66.8542 22.0453 66.8542 21.256C66.8542 20.3173 67.0676 19.5493 67.4942 18.952C67.9422 18.3547 68.5076 17.8747 69.1902 17.512C69.8729 17.1493 70.5876 16.8507 71.3342 16.616C72.1022 16.36 72.8276 16.1253 73.5102 15.912C74.1929 15.6773 74.7476 15.4107 75.1742 15.112C75.6222 14.8133 75.8462 14.4187 75.8462 13.928V11.944C75.8462 11.048 75.7076 10.3653 75.4302 9.896C75.1742 9.42667 74.8222 9.11733 74.3742 8.968C73.9262 8.79733 73.4249 8.712 72.8702 8.712C72.3369 8.712 71.7609 8.78667 71.1422 8.936C70.5449 9.08533 70.0649 9.39467 69.7022 9.864C70.1076 9.94933 70.4596 10.1627 70.7582 10.504C71.0569 10.8453 71.2062 11.2827 71.2062 11.816C71.2062 12.3493 71.0356 12.776 70.6942 13.096C70.3529 13.3947 69.9156 13.544 69.3822 13.544C68.7636 13.544 68.3049 13.352 68.0062 12.968C67.7289 12.5627 67.5902 12.1147 67.5902 11.624C67.5902 11.0693 67.7289 10.6213 68.0062 10.28C68.2836 9.93867 68.6356 9.61867 69.0622 9.32C69.5529 8.97867 70.1822 8.69067 70.9502 8.456C71.7396 8.2 72.6249 8.072 73.6062 8.072C74.4809 8.072 75.2276 8.17867 75.8462 8.392C76.4649 8.584 76.9769 8.872 77.3822 9.256C77.9369 9.768 78.2996 10.3973 78.4702 11.144C78.6409 11.8693 78.7262 12.744 78.7262 13.768V22.664C78.7262 23.1973 78.8009 23.5813 78.9502 23.816C79.1209 24.0507 79.3769 24.168 79.7182 24.168C79.9529 24.168 80.1769 24.1147 80.3902 24.008C80.6036 23.9013 80.8596 23.7307 81.1582 23.496L81.5102 24.04C81.0622 24.3813 80.6356 24.6693 80.2302 24.904C79.8249 25.1173 79.2809 25.224 78.5982 25.224C77.9796 25.224 77.4676 25.1173 77.0622 24.904C76.6569 24.6907 76.3476 24.3813 76.1342 23.976C75.9422 23.5493 75.8462 23.016 75.8462 22.376C75.2702 23.336 74.5769 24.0507 73.7662 24.52C72.9769 24.9893 72.0809 25.224 71.0782 25.224ZM72.2302 23.944C72.9342 23.944 73.5849 23.7413 74.1822 23.336C74.8009 22.9307 75.3556 22.3227 75.8462 21.512V15.24C75.5902 15.6027 75.2169 15.912 74.7262 16.168C74.2356 16.4027 73.7022 16.648 73.1262 16.904C72.5502 17.1387 71.9956 17.4267 71.4622 17.768C70.9502 18.088 70.5236 18.5147 70.1822 19.048C69.8409 19.5813 69.6702 20.2747 69.6702 21.128C69.6702 21.9813 69.8942 22.664 70.3422 23.176C70.8116 23.688 71.4409 23.944 72.2302 23.944ZM92.2637 8.072C93.0744 8.072 93.7464 8.17867 94.2797 8.392C94.8344 8.60533 95.2931 8.904 95.6557 9.288C96.0611 9.71467 96.3491 10.248 96.5197 10.888C96.6904 11.528 96.7757 12.392 96.7757 13.48V22.024C96.7757 22.92 96.9571 23.528 97.3197 23.848C97.7037 24.168 98.3331 24.328 99.2077 24.328V25C98.8451 24.9787 98.2904 24.9573 97.5437 24.936C96.7971 24.8933 96.0717 24.872 95.3677 24.872C94.6637 24.872 93.9704 24.8933 93.2877 24.936C92.6264 24.9573 92.1251 24.9787 91.7837 25V24.328C92.5517 24.328 93.0957 24.168 93.4157 23.848C93.7357 23.528 93.8957 22.92 93.8957 22.024V12.776C93.8957 12.1147 93.8424 11.5067 93.7357 10.952C93.6291 10.3973 93.3837 9.94933 92.9997 9.608C92.6371 9.26667 92.0717 9.096 91.3037 9.096C90.4077 9.096 89.6184 9.352 88.9357 9.864C88.2744 10.376 87.7517 11.08 87.3677 11.976C87.0051 12.8507 86.8237 13.832 86.8237 14.92V22.024C86.8237 22.92 86.9837 23.528 87.3037 23.848C87.6237 24.168 88.1677 24.328 88.9357 24.328V25C88.5944 24.9787 88.0824 24.9573 87.3997 24.936C86.7384 24.8933 86.0557 24.872 85.3517 24.872C84.6477 24.872 83.9224 24.8933 83.1757 24.936C82.4291 24.9573 81.8744 24.9787 81.5117 25V24.328C82.3864 24.328 83.0051 24.168 83.3677 23.848C83.7517 23.528 83.9437 22.92 83.9437 22.024V12.008C83.9437 11.048 83.7731 10.344 83.4317 9.896C83.0904 9.42667 82.4504 9.192 81.5117 9.192V8.52C82.1944 8.584 82.8557 8.616 83.4957 8.616C84.1144 8.616 84.7011 8.584 85.2557 8.52C85.8317 8.43467 86.3544 8.31733 86.8237 8.168V11.944C87.3784 10.4933 88.1464 9.49067 89.1277 8.936C90.1304 8.36 91.1757 8.072 92.2637 8.072ZM105.373 8.072C106.227 8.072 106.952 8.21067 107.549 8.488C108.147 8.76533 108.584 9.02133 108.861 9.256C109.565 9.832 109.992 9.448 110.141 8.104H110.877C110.835 8.70133 110.803 9.416 110.781 10.248C110.76 11.0587 110.749 12.1573 110.749 13.544H110.013C109.885 12.7547 109.661 11.9867 109.341 11.24C109.043 10.4933 108.595 9.88533 107.997 9.416C107.4 8.92533 106.621 8.68 105.661 8.68C104.915 8.68 104.285 8.89333 103.773 9.32C103.283 9.72533 103.037 10.3333 103.037 11.144C103.037 11.784 103.229 12.3387 103.613 12.808C103.997 13.256 104.499 13.6827 105.117 14.088C105.736 14.472 106.408 14.8987 107.133 15.368C107.944 15.88 108.68 16.4027 109.341 16.936C110.003 17.4693 110.525 18.056 110.909 18.696C111.315 19.336 111.517 20.0933 111.517 20.968C111.517 21.9493 111.261 22.7707 110.749 23.432C110.237 24.0933 109.565 24.5947 108.733 24.936C107.923 25.2773 107.027 25.448 106.045 25.448C105.576 25.448 105.128 25.4053 104.701 25.32C104.296 25.256 103.901 25.1493 103.517 25C103.304 24.8933 103.08 24.7653 102.845 24.616C102.632 24.4667 102.419 24.3067 102.205 24.136C101.992 23.9653 101.8 23.976 101.629 24.168C101.459 24.3387 101.331 24.6907 101.245 25.224H100.509C100.552 24.5413 100.584 23.7093 100.605 22.728C100.627 21.7467 100.637 20.4453 100.637 18.824H101.373C101.523 20.0187 101.736 21.064 102.013 21.96C102.291 22.856 102.728 23.56 103.325 24.072C103.923 24.5627 104.755 24.808 105.821 24.808C106.248 24.808 106.675 24.712 107.101 24.52C107.549 24.328 107.923 24.008 108.221 23.56C108.52 23.112 108.669 22.5147 108.669 21.768C108.669 20.8293 108.328 20.0613 107.645 19.464C106.963 18.8667 106.099 18.2373 105.053 17.576C104.285 17.0853 103.56 16.5947 102.877 16.104C102.216 15.6133 101.672 15.0587 101.245 14.44C100.84 13.8213 100.637 13.0747 100.637 12.2C100.637 11.24 100.851 10.4613 101.277 9.864C101.725 9.24533 102.312 8.79733 103.037 8.52C103.763 8.22133 104.541 8.072 105.373 8.072ZM116.102 21.352C116.657 21.352 117.137 21.5547 117.542 21.96C117.947 22.3653 118.15 22.8453 118.15 23.4C118.15 23.9547 117.947 24.4347 117.542 24.84C117.137 25.2453 116.657 25.448 116.102 25.448C115.547 25.448 115.067 25.2453 114.662 24.84C114.257 24.4347 114.054 23.9547 114.054 23.4C114.054 22.8453 114.257 22.3653 114.662 21.96C115.067 21.5547 115.547 21.352 116.102 21.352Z" fill="#1F1F1F"/>
</svg>
